<svg xmlns="http://www.w3.org/2000/svg" viewBox="0 0 350.91 479.02"><defs><style>.cls-1{fill:#231f20;}</style></defs><g id="Layer_2" data-name="Layer 2"><g id="Layer_1-2" data-name="Layer 1"><path class="cls-1" d="M15.82,230.53c-1.76,20.46-1.56,42.52,8.76,60.92,5.22,9.31,14.09,15.28,17.77,25.46s6,21,13.89,29.09c2.44,2.48,5.84,4.54,7.82,7.42s.82,6.14.32,9.25c-1.1,6.79-2,13.4-4,20a135.11,135.11,0,0,1-7,17.57c-4.93,10.9-5.31,21.36,3.3,30.54,7.74,8.26,19,14.28,28.76,19.8,21.44,12.13,44.91,21.05,69.23,25.19A239.72,239.72,0,0,0,191.28,479c7.09.1,15.06-.53,21.16-4.54,11.61-7.64,10.34-23.09,10.39-35.25,0-3.51-.39-7.59.31-11,.47-2.29-.28-1.44,2-2.26s5.08-1.13,7.53-1.89a87.48,87.48,0,0,0,25.8-12.82C293,386,306.86,341.46,312.88,301c1.12-7.55-10.44-10.81-11.58-3.19-5.05,34-15.09,71.13-40.47,95.85a80.36,80.36,0,0,1-21.65,15.1,71.29,71.29,0,0,1-12.35,4.51c-4.18,1.11-8.71,1.47-12,4.68-5.53,5.45-4,16.22-4,23.38,0,5.66.4,11.68-1.07,17.18-1.12,4.17-3.18,6.33-7.82,7.57-8.66,2.31-18.85.75-27.64.14-23.59-1.65-46.87-8.26-68.2-18.37a238.88,238.88,0,0,1-30.73-17.58c-4.1-2.75-8.68-5.48-11.6-9.57-3.52-4.91-2-10,.34-15.06,5.09-11.08,9.22-22.08,11.12-34.21,1.33-8.47,4-17.74-1.68-25.18-2.52-3.32-5.93-5.74-8.82-8.7-4-4.08-6.07-9.35-7.83-14.69S53.54,312,51.09,306.87c-2.59-5.43-6.55-9-10.46-13.39-15-16.84-14.62-41.84-12.81-63,.66-7.69-11.35-7.65-12,0Z"/><path class="cls-1" d="M42.44,312.2C53,325.48,71.85,335,88.05,326.19c6.8-3.68.75-14-6-10.36-11.31,6.11-24.22-3.48-31.07-12.12-4.8-6-13.24,2.49-8.49,8.49Z"/><path class="cls-1" d="M68.51,323.49c-.56,6.23-1.43,12.41-2.57,18.56-1.41,7.55,10.15,10.79,11.57,3.19q2-10.8,3-21.75c.7-7.69-11.3-7.65-12,0Z"/><path class="cls-1" d="M76.72,364.32q1.16-18.56.67-37.16c-.2-7.7-12.21-7.74-12,0q.49,18.6-.67,37.16c-.49,7.72,11.52,7.69,12,0Z"/><path class="cls-1" d="M73.29,334.74l-8.16-10.62c-2-2.57-5.16-3.94-8.21-2.16-2.52,1.48-4.13,5.63-2.15,8.21l8.16,10.63c2,2.56,5.16,3.93,8.21,2.15,2.52-1.48,4.14-5.62,2.15-8.21Z"/><path class="cls-1" d="M197.93,348c22.39,9.2,47.29,6.37,70.07.17,7.44-2,4.28-13.61-3.19-11.57-20.93,5.7-43.12,8.28-63.69-.17-7.13-2.94-10.24,8.67-3.19,11.57Z"/><path class="cls-1" d="M93.18,343.36c10.66,24.18,36.2,40.66,58.25,53.31,11.75,6.73,23.9,12.75,36.26,18.28,5.83,2.61,11.88,5.88,18.06,7.51,9.13,2.41,18.44.27,27.64-.26,7.68-.44,7.73-12.45,0-12-8.19.48-17.24,2.9-25.3.43-5.65-1.73-11.21-4.62-16.59-7.06-11.58-5.25-23-10.94-34-17.26-20.43-11.71-44.07-26.59-53.95-49-3.11-7.05-13.45-.95-10.36,6.05Z"/><path class="cls-1" d="M171,405.89c9.71,15.32,26.76,20.58,41.54,29.51,6.63,4,12.67-6.37,6.06-10.36-12.62-7.62-29-12.15-37.24-25.21-4.12-6.51-14.51-.49-10.36,6.06Z"/><path class="cls-1" d="M61.1,276c-5.18-6.13-4.4-15.31,1.08-20.91s-3.07-14-8.48-8.49c-10.33,10.55-10.49,26.74-1.09,37.88,5,5.91,13.44-2.61,8.49-8.48Z"/><path class="cls-1" d="M40.11,243.63c13.93-1.35,22.17,11.7,25,23.74,1.77,7.52,13.35,4.34,11.58-3.19-4-16.94-17.41-34.41-36.58-32.55-7.62.74-7.69,12.75,0,12Z"/><path class="cls-1" d="M159.64,219.35a85,85,0,0,1,63.63-3.8c7.35,2.44,10.5-9.15,3.19-11.57a97.41,97.41,0,0,0-72.88,5c-7,3.35-.88,13.7,6.06,10.36Z"/><path class="cls-1" d="M288.11,217a111.66,111.66,0,0,1,22.43-6.52c7.59-1.37,4.38-12.94-3.19-11.57a111.66,111.66,0,0,0-22.43,6.52c-3,1.24-5.08,4-4.19,7.38.76,2.85,4.39,5.42,7.38,4.19Z"/><path class="cls-1" d="M28.12,227.2c3.25-5.92,2.05-11.24-.63-17.09a73.19,73.19,0,0,1-5.8-19.47,75.41,75.41,0,0,1,5-39.86c1-2.43-.67-5.52-2.76-6.77A36,36,0,0,1,11.12,131l-3.59,8.81c6.65-1.19,17.2-.09,22.34-5.27,8-8.09-5.64-17.09-11.18-21v10.36C35.25,114.22,45.74,98.19,55.08,82c9-15.66,17.74-33.33,33.14-43.78A110.73,110.73,0,0,1,122,22.83c6.27-1.6,13.33-2.43,19.73-.93,5.72,1.35,10.4,2.92,16.29.82,5.27-1.87,9.32-5.49,14-8.41A17.1,17.1,0,0,1,182.17,12c7.58.36,15,3.85,21.85,6.78,8.43,3.59,17.1,7.52,26.41,7.85,9.77.36,18.27-4.3,24.33-11.78l-10-2.65c1.37,4.18-1,8.31-2.24,12.26-1.54,4.85-2,10.1,1.44,14.27,4.19,5.12,11.74,6.23,17.71,8a1.41,1.41,0,0,1,.71.45c-.56-.76-.07-.61-.15.56a13.5,13.5,0,0,0,.6,5.29c2.2,6.37,9.33,7.33,15,8.39a28,28,0,0,1,13.61,6.93c8.36,7.53,13.87,17.62,20.91,26.29,8.32,10.27,19.15,17.26,32.74,16.92l-4.24-10.24c-4,4.75-9.76,8.64-12.3,14.53-2.35,5.46,1.35,13.44,2.39,19a30.86,30.86,0,0,1,.65,8.78c-.36,3.48-1.49,5.23-3.43,6.71-4.13,3.13-6.85,6.64-7.17,12-.52,8.58,6.85,17.62,2.18,25.68-5.27,9.07-15.56,14.68-14.06,26.67.94,7.56,12.95,7.66,12,0-1.06-8.45,8.53-14,12.42-20.62,4.83-8.2,3.06-16,.62-24.66-.67-2.39-2.21-6.08-.46-8.27,1.27-1.58,3.59-2.08,5-3.78a21.87,21.87,0,0,0,4-7.9c3-10.72-1.54-21.66-3.15-32.2l-.61,4.62c2.42-4.85,7-8,10.43-12.1,3.18-3.75,1.3-10.38-4.25-10.24-22,.54-30.33-25.26-43.69-38.32a43.7,43.7,0,0,0-12.74-8.89,34.55,34.55,0,0,0-7.46-2.47c-1.23-.24-7.74-1.83-7.78-1.81l.75,1.3-.12-.47c.3,0-.19,1.48.1.12a8.32,8.32,0,0,0,.05-1.8,12.78,12.78,0,0,0-1.54-6.17c-3.28-5.61-10-6.61-15.69-8.2a9.86,9.86,0,0,1-3.56-1.44c-.23-.19-.36-.84-.17-.11-.35-1.32,1-4.07,1.51-5.68,1.89-5.41,3.4-10.95,1.54-16.61-1.28-3.88-7-6.38-10-2.64-4.8,5.91-10.46,9.17-18.2,8.06s-15.31-4.9-22.56-8C198,3.38,190.37.42,182.17,0a30.47,30.47,0,0,0-10.61,1.32c-5.22,1.67-9.1,5.31-13.72,8.12-2.06,1.26-4.32,2.57-6.83,2.49-2.67-.08-5.24-1.52-7.88-2a56,56,0,0,0-19.11.15c-12.84,2.18-25,8.18-36.35,14.35C70.78,33.69,59.93,49.56,50.51,65.81,40.32,83.38,30.84,102.89,12.63,113.5c-4.14,2.41-3.59,7.83,0,10.36,1.79,1.26,3.58,2.51,5.24,3.93.62.55,1.65,2,2.4,2.27.56,1.06.54.7-.08-1.06q3.75-4.69,1.43-3.26c.53.16-.81.15-1.41.26-5.26.94-10.61,1.25-15.87,2.19C.46,128.88-1,133.91.76,137a48.44,48.44,0,0,0,17.17,17.37l-2.76-6.78a84.7,84.7,0,0,0-6,37.93,86.3,86.3,0,0,0,3.21,18.18,84,84,0,0,0,3.41,9.38c1,2.35,3.41,5.51,2,8.07-3.71,6.78,6.65,12.84,10.36,6Z"/><path class="cls-1" d="M22.33,232.73c7.72,0,7.73-12,0-12s-7.74,12,0,12Z"/><path class="cls-1" d="M304.55,200.51c.48,1.2,1,2.38,1.49,3.56a2.87,2.87,0,0,0,1.5,1.15,1.85,1.85,0,0,0,1,0,1.82,1.82,0,0,0,.93-.29,2.5,2.5,0,0,0,1.15-1.5l.09-.66a2.57,2.57,0,0,0-.34-1.27c-.2-.44-.39-.89-.58-1.33l.26.59c-.23-.53-.45-1.07-.67-1.61a2.87,2.87,0,0,0-1.15-1.5,2,2,0,0,0-.93-.3,2,2,0,0,0-1,.05,2.53,2.53,0,0,0-1.49,1.15l-.25.6a2.47,2.47,0,0,0,0,1.32Z"/><path class="cls-1" d="M28.47,221.36c8.14-4.71,17.9-6.45,26.85-3a25.93,25.93,0,0,1,10.28,7.49,29.33,29.33,0,0,1,3.85,6c1.19,2.4,1.73,5,2.83,7.44,4,8.83,7.5,20.64,17.49,24.47a14.5,14.5,0,0,0,12.94-1.44,10.47,10.47,0,0,0,4.11-5.42c.86-2.7,0-5.32-.06-8,0-.49-.18.16-.1-.08s.09-.08-.14.1l.33-.22.37-.2c.37-.21-.24.05.32-.15a15.92,15.92,0,0,1,3-.7,54.26,54.26,0,0,1,6.91-.36c4.84,0,9.84.43,14.64-.43,1.44-.26,1.93-1.85,1.74-3.08-.32-2.15.35-4.31-.21-6.46a6.14,6.14,0,0,0-1.77-3c-1.31-1.21-2.86-1.36-4.58-1.43-6.37-.28-12.57,2-19,1.18l2.5,2.5c-1.39-16.89,9.51-33.39,25.17-39.59a2.61,2.61,0,0,0,1.83-2.41,134.9,134.9,0,0,0-.85-20.78c-.59-5.92-1.35-11.89-1.16-17.86,0-.63,0-1.26.1-1.89,0-.35.06-.7.1-1,0-.13.13-1.12.06-.59a25.61,25.61,0,0,1,.77-3.66c.15-.54.33-1.09.53-1.62,0-.13.37-.87.15-.38.14-.32.29-.64.45-1a16.14,16.14,0,0,1,.83-1.46c.15-.24.3-.48.47-.71l.24-.34c.42-.57-.31.37.14-.17a17.08,17.08,0,0,1,5.78-4.61,35.91,35.91,0,0,1,9.36-3.12c4.6-1,9.41-.8,13.92-2.07,4.34-1.22,8.46-3.33,12.92-4.08a15.25,15.25,0,0,1,6.13.21,12.75,12.75,0,0,1,3.74,1.34c1.08.66,2.12,1.41,3.17,2.11,3.87,2.59,7.7,5.23,11.53,7.88,12.45,8.63,24.89,17.75,39.16,23.19,15.53,5.93,32.33,6.26,48.67,4.35q4.2-.5,8.38-1.14l-3.08-1.74q3.65,17.46,6,35.16a2.59,2.59,0,0,0,2.5,2.5,2.51,2.51,0,0,0,2.5-2.5q-2.41-18.36-6.16-36.49a2.57,2.57,0,0,0-3.08-1.75c-17,2.6-34.68,3.44-51.2-2.07-14.18-4.73-26.67-13.77-38.92-22.27-3.85-2.67-7.71-5.35-11.59-8-2.08-1.41-4.2-3.19-6.51-4.16A23.1,23.1,0,0,0,185,124c-4.65-.21-9,1.45-13.28,3a33.77,33.77,0,0,1-6.79,2c-2.47.33-5,.42-7.44.78-6.87,1-14,2.92-19.36,7.59a22,22,0,0,0-6.93,13.64c-.85,5.89-.35,11.84.22,17.73.66,6.78,1.44,13.56,1.48,20.38,0,1.79,0,3.58-.13,5.37l1.84-2.41a46.17,46.17,0,0,0-27.93,32.09,40.51,40.51,0,0,0-.91,12.32,2.59,2.59,0,0,0,2.5,2.5c7,.91,14-1.91,21-1l-1.26-.34c1,.57.85,1.43.83,2.57a27.48,27.48,0,0,0,.12,4.8l1.75-3.07c-.07,0-.78.12-.22,0-.16,0-.33,0-.49.06-.44,0-.87.08-1.31.1-1,.06-2.11.08-3.16.09-2.36,0-4.72,0-7.07,0-4.1,0-8.7-.14-12.58,1.36-2.6,1-4.13,2.74-4.14,5.68,0,2.33,1,4.79,0,6.8-1.55,3.14-6,4.08-9.25,3.31-4.38-1.05-7.55-5.3-9.74-9.13a73.44,73.44,0,0,1-3.41-7c-1-2.25-2.14-4.53-2.94-6.84a57.47,57.47,0,0,0-2.93-7.57,34.77,34.77,0,0,0-4.16-6.24,30.24,30.24,0,0,0-11.2-8.41c-10.57-4.56-22.42-2.79-32.21,2.88-2.78,1.61-.27,5.93,2.52,4.31Z"/><path class="cls-1" d="M141.3,246.82c.26.06.51.17.77.24-.77-.21,0,0,.2.14.65.32-.17-.28.17.12a6,6,0,0,0,.49.52c-.57-.53-.05-.06.1.21s.23.46.35.69c-.39-.75,0,.07.09.3s.16.56.23.84a17.44,17.44,0,0,1,.35,1.89c-.12-.78,0,.18,0,.36,0,.43.08.86.12,1.28.13,1.63.2,3.27.29,4.9.48,8.7,1.89,17.31,6.51,24.87a48.21,48.21,0,0,0,26.86,20.28,44.49,44.49,0,0,0,29.28-1.71c19.16-7.87,32.78-27.11,33.28-47.9,0-1.22,0-2.43-.05-3.64s.06-2.67,0-4a22.62,22.62,0,0,0-2-7.73,25.68,25.68,0,0,0-10-10.68,44.6,44.6,0,0,0-14.18-5.5c-2.6-.56-5.24-.83-7.86-1.25-3.51-.56-7.05-1-10.59-1.38a75.49,75.49,0,0,0-20.42.55,46.59,46.59,0,0,0-9.94,3c-3.16,1.35-6,3.35-9,4.9a47.61,47.61,0,0,1-9.17,3.53c-2.75.73-5.95.72-8.32,2.45-3.32,2.42-5.16,8-1.72,11.19a6.34,6.34,0,0,0,6.37,1c3-1,1.74-5.83-1.32-4.82a7.66,7.66,0,0,1-.82.23c-.79.18.43,0-.31,0,0,0-.71,0-.31,0s-.21-.07-.24-.08c.63.27,0,0-.06-.06.46.7,0-.11,0-.06.11.46.25.22.08.1l-.17-.31c.13.33.15.36.06.1s-.14-.76-.06-.07a2.42,2.42,0,0,1,0-.38,5.82,5.82,0,0,1,0-.59c0,.63,0,0,0-.14a3.34,3.34,0,0,1,.82-1.57,3.07,3.07,0,0,1,1.48-1c1.5-.4,3.08-.55,4.6-.91a52.28,52.28,0,0,0,9.32-3.26,85.83,85.83,0,0,0,8.41-4.61,32.55,32.55,0,0,1,8.74-3.22,62.8,62.8,0,0,1,19-1.22c5.95.39,12.21,1.3,17.88,2.25a44,44,0,0,1,13.14,4.22,23.16,23.16,0,0,1,9.38,8.3,16.28,16.28,0,0,1,2.19,6.1,54.37,54.37,0,0,1,.21,6.92c.19,18.72-11.51,36.37-28.42,44.19a39.91,39.91,0,0,1-25.84,2.78,43.18,43.18,0,0,1-24.92-17.06,35.37,35.37,0,0,1-5.15-11.59,53,53,0,0,1-1.53-10.65c-.21-3.2-.26-6.42-.74-9.6a10.85,10.85,0,0,0-2.88-6.49,7.48,7.48,0,0,0-3.34-1.78c-3.12-.78-4.46,4-1.33,4.82Z"/><path class="cls-1" d="M150.09,251.66a50.32,50.32,0,0,1,5.77-17.13,2.56,2.56,0,0,0-.9-3.42,2.53,2.53,0,0,0-3.42.9,54,54,0,0,0-6.27,18.32A2.58,2.58,0,0,0,147,253.4a2.52,2.52,0,0,0,3.08-1.74Z"/><path class="cls-1" d="M147.5,239l-.39,0,.66.09a3.33,3.33,0,0,1-.75-.2l.6.25a3.54,3.54,0,0,1-.67-.41l.51.39a2.92,2.92,0,0,1-.55-.56l.39.51a3.47,3.47,0,0,1-.34-.59l.25.6a2.84,2.84,0,0,1-.18-.65l.09.67a3.62,3.62,0,0,1,0-.93l-.09.67a1.26,1.26,0,0,1,.1-.33l-.26.6a1.83,1.83,0,0,1,.23-.38l-.39.51a2.59,2.59,0,0,1,.41-.4l-.51.39a3.17,3.17,0,0,1,.76-.43l-.6.25a3.83,3.83,0,0,1,1-.27l-.67.09a2.36,2.36,0,0,1,.65,0l-.66-.09a1.89,1.89,0,0,1,.34.09l-.6-.25a1,1,0,0,1,.17.1l-.5-.39.09.09-.39-.5.08.13-.26-.6a.93.93,0,0,1,0,.13l-.09-.66v.18l.09-.66a1.71,1.71,0,0,1-.09.3l.25-.59a2.2,2.2,0,0,1-.27.47l.39-.5a4.62,4.62,0,0,1-.78.75l.5-.39a5,5,0,0,1-1.07.63l.6-.25a4.12,4.12,0,0,1-.76.22l.66-.09a2.91,2.91,0,0,1-.59,0l.66.09a2.08,2.08,0,0,1-.41-.11l.6.25a1.79,1.79,0,0,1-.38-.22l.51.39a1.44,1.44,0,0,1-.28-.27l.39.5a2.92,2.92,0,0,1-.24-.37l.25,1.93c0-.06,0-.11.05-.16l-.25.6a1.68,1.68,0,0,1,.2-.34l-.39.5a1.44,1.44,0,0,1,.28-.27l-.51.39a1.51,1.51,0,0,1,.35-.2l-.6.25a1.88,1.88,0,0,1,.46-.14l-.66.09a1.85,1.85,0,0,1,.47,0l-.66-.09a1.82,1.82,0,0,1,.38.11l-.6-.25a1.48,1.48,0,0,1,.27.16l-.9-3.42a6.81,6.81,0,0,1-.53.79l.39-.51a6.7,6.7,0,0,1-1.19,1.19l.51-.39a7.26,7.26,0,0,1-1.54.91l.59-.25a5.13,5.13,0,0,1-.69.25l3.16,2.41a2.81,2.81,0,0,1,0-.29l-.09.67a2.62,2.62,0,0,1,.09-.38l-.25.6a2.22,2.22,0,0,1,.25-.42l-.39.51a1.85,1.85,0,0,1,.28-.28l-.51.39a3.62,3.62,0,0,1,.33-.2l-.6.25a2.59,2.59,0,0,1,.37-.11l-.66.09a1.41,1.41,0,0,1,.29,0l-2.16-3.76a4.39,4.39,0,0,1-.38.61l.39-.51a3.18,3.18,0,0,1-.58.58l.51-.39a3.57,3.57,0,0,1-.8.47l.6-.25a3.42,3.42,0,0,1-.79.22l3.17,2.41a2.26,2.26,0,0,1,0-.45l-.09.66a2.38,2.38,0,0,1,.15-.52l-.25.6a2.78,2.78,0,0,1,.28-.47l-.39.51a2.79,2.79,0,0,1,.46-.45l-.51.39a3.11,3.11,0,0,1,.56-.32l-.6.25a2.33,2.33,0,0,1,.52-.13l-.66.09a2.26,2.26,0,0,1,.45,0l-.67-.09.27.06a2.5,2.5,0,1,0,1.33-4.82,4.73,4.73,0,0,0-4.3,1.1,4.49,4.49,0,0,0-1.55,3.6,2.52,2.52,0,0,0,3.16,2.41,5.8,5.8,0,0,0,4-3,2.57,2.57,0,0,0,0-2.52,2.52,2.52,0,0,0-2.16-1.24,4.13,4.13,0,0,0-4.12,4.18,2.56,2.56,0,0,0,1,2,2.41,2.41,0,0,0,2.18.44,9.55,9.55,0,0,0,5.45-4.29,2.48,2.48,0,0,0,.25-1.92,2.88,2.88,0,0,0-1.14-1.5,3.72,3.72,0,0,0-2.31-.62,4.49,4.49,0,0,0-2.72,1.13,3.18,3.18,0,0,0-1,3.46,4.11,4.11,0,0,0,1.75,2,4.93,4.93,0,0,0,4.53-.07,6.6,6.6,0,0,0,2.76-2.37,3.45,3.45,0,0,0,.17-3.62,3.49,3.49,0,0,0-3.13-1.56,5.62,5.62,0,0,0-4.79,2.68,5.15,5.15,0,0,0,.19,4.75A5.49,5.49,0,0,0,147.5,244a2.5,2.5,0,0,0,0-5Z"/><path class="cls-1" d="M241.55,245.57c5-.25,9.95.36,14.93.22,1.13,0,2.26-.1,3.39-.24,1.34-.15,3.41-.16,4.42-1.17a18.67,18.67,0,0,0,1.77-2.52c.62-.88,1.25-1.75,1.9-2.59,4.86-6.28,10.81-12,18-15.51a30.5,30.5,0,0,1,11-3.12,33.18,33.18,0,0,1,5.46.05l.69.07c-.6-.07.05,0,.27.05.56.09,1.11.2,1.66.32a62.1,62.1,0,0,1,16.64,6.35,33.3,33.3,0,0,1,7.76,5.47,15.78,15.78,0,0,1,1.4,1.56c-.28-.36.28.41.37.56s.31.53.46.8c.05.09.09.18.13.27.29.57-.15-.48.06.12q.13.41.24.81c0,.12,0,.24.08.36.07.33,0-.61,0,0,0,.31,0,.6,0,.91l.35-1.26c-4.32,5.75-5.73,12.77-6.57,19.77-.38,3.08-.51,6.23-1.1,9.28a29.73,29.73,0,0,1-2.2,6.8c-4.27,9.22-12.3,17.87-21.86,21.53-5.07,1.94-10.49,2.44-15.4.19l1.15,1.49c-1.31-7.62-5.48-14.38-9.59-20.78-4-6.25-8.51-12.57-10.43-19.81a22.41,22.41,0,0,1,0-11.86c.86-3.11-4-4.44-4.82-1.33C256.89,259.51,270.75,273,278,287a42.55,42.55,0,0,1,2.21,5c.32.89.6,1.79.85,2.71a23.9,23.9,0,0,0,.72,3.06c.76,1.83,4.13,2.51,5.93,2.87a22.83,22.83,0,0,0,5.83.47c8.21-.43,15.74-4.72,21.73-10.11a47.11,47.11,0,0,0,13.55-20.43c1.39-4.43,1.51-9.15,2.07-13.72.58-4.82,1.48-9.78,3.83-14.08.57-1.05,1.29-2,1.93-3a4.08,4.08,0,0,0,.43-2.7,10.48,10.48,0,0,0-1.5-4.32,23.83,23.83,0,0,0-6.88-6.76,65.16,65.16,0,0,0-19.59-9,34.64,34.64,0,0,0-22.56,1c-8.87,3.59-16.19,10.12-22,17.58-1.45,1.86-2.83,3.76-4.13,5.72l1.49-1.15c-6.66,1.42-13.57,0-20.31.37-3.2.16-3.22,5.16,0,5Z"/><path class="cls-1" d="M321.56,229c.57.36-.17-.23.13.09l.36.37c.38.38-.22-.35.06.07.15.23.3.45.43.68a9.13,9.13,0,0,1,1,2.38,46.07,46.07,0,0,1,1.74,7.54c.7,4.37,1,9.13,1.31,13.72.18,3.2,5.18,3.22,5,0a146.75,146.75,0,0,0-1.59-15.66,39.63,39.63,0,0,0-2-7.87c-.84-2.18-1.95-4.35-4-5.64-2.73-1.73-5.24,2.6-2.52,4.32Z"/><path class="cls-1" d="M326.68,231.78a18.14,18.14,0,0,0,1.3,7.13,2.79,2.79,0,0,0,1.15,1.49,2.51,2.51,0,0,0,3.42-.9,2.41,2.41,0,0,0,.25-1.92,16.69,16.69,0,0,1-1.07-4l.09.66a17.05,17.05,0,0,1-.14-2.47,2.51,2.51,0,0,0-2.5-2.5,2.55,2.55,0,0,0-2.5,2.5Z"/><path class="cls-1" d="M191.41,254.9C190,249,190.23,242,193.82,236.82a11.52,11.52,0,0,1,2.61-2.72,7,7,0,0,1,1.89-.61c.28-.07.55-.12.83-.17s-.38,0,0,0l.55,0a8.1,8.1,0,0,1,.85,0c.45,0-.38-.12.23,0,.22.06.44.1.66.17s.25.08.37.12c.57.18-.29-.16,0,0a10,10,0,0,1,1.21.73c-.51-.37.12.13.22.22l.53.55c.46.48,0-.06.22.27s.31.44.45.67a15.86,15.86,0,0,1,.78,1.47c.17.38-.07-.23.11.3.1.28.2.56.29.84a17.39,17.39,0,0,1,.48,1.75c.12.56.23,1.14.31,1.71-.07-.49,0,.41.05.51,0,.32.06.64.08,1a26.92,26.92,0,0,1,0,3.81c0,.27,0,.54-.08.81s0,.31-.05.46c0,.41.06-.37,0,0-.09.59-.2,1.18-.33,1.76s-.26,1.05-.43,1.56c-.08.27-.17.53-.26.79s-.35.83-.13.32a7.81,7.81,0,0,1-4.07,4.44c.14-.06-.58.2-.76.26s-.57.16-.87.22l-.43.09c-.48.09.19,0-.11,0s-.66.06-1,.06-.66,0-1,0l-.33,0c.59.07-.12,0-.19-.05-.28-.07-.56-.13-.84-.21l-.4-.13c-.45-.14.17.09-.1,0a7.49,7.49,0,0,1-.84-.44c-.15-.09-.74-.5-.36-.2a7.08,7.08,0,0,1-.7-.64l-.29-.31c-.19-.21.19.3-.07-.09s-.34-.55-.5-.84c-.06-.1-.1-.2-.15-.3.21.47-.06-.22-.08-.26-.09-.31-.17-.62-.24-.94-.1-.48,0-.2,0-.08a7,7,0,0,1-.06-.79c-.14-3.2-5.14-3.22-5,0a10.49,10.49,0,0,0,4.51,8.49,12.81,12.81,0,0,0,16.47-2.72,11.4,11.4,0,0,0,1.32-2c.1-.21.18-.42.28-.63.42-1-.15.36.13-.28.19-.44.38-.88.56-1.33a20.24,20.24,0,0,0,1-3.74c1-5.62.71-12.29-2.45-17.23a10.58,10.58,0,0,0-6.45-4.83,11.59,11.59,0,0,0-10,2.59c-6.84,6-7.67,16.74-5.65,25.09.76,3.12,5.58,1.8,4.82-1.33Z"/><path class="cls-1" d="M278.55,254.37a17.38,17.38,0,0,1-1.05-10.11,12.63,12.63,0,0,1,2.16-4.5c.22-.34.46-.66.7-1s.09-.13,0-.05l.42-.52a18.13,18.13,0,0,1,1.41-1.5c.21-.2.43-.38.64-.57s.46-.35,0,0l.29-.21a11.31,11.31,0,0,1,1.46-.88,1.36,1.36,0,0,1,.35-.16c-.21,0-.48.18-.18.09s.45-.16.68-.22.45-.1.68-.15-.25.14-.27,0l.4,0h.65c.13,0,.8.11.31,0s.17.05.3.08.49.14.73.22c.59.19-.41-.24.06,0,.17.1.35.18.52.27l.56.35.22.16c.39.25-.47-.41,0,0s.66.59,1,.92c.14.15.28.32.42.48s.37.29-.08-.1a2,2,0,0,1,.27.36,13.83,13.83,0,0,1,.76,1.22l.33.62c.08.16.49,1.14.2.42a18.4,18.4,0,0,1,.93,3c.06.28.12.56.16.84l.06.34c.1.6-.05-.58,0,0s.11,1.17.12,1.76,0,1.09,0,1.63c0,.3-.05.6-.07.91-.06.6.07-.41,0,0,0,.18,0,.37-.08.55a19.09,19.09,0,0,1-1,3.55s-.24.6-.09.23-.1.22-.11.24c-.14.3-.28.59-.43.88a18.71,18.71,0,0,1-1,1.72c-.17.26-.35.51-.53.75s.38-.44-.06.07l-.27.33c-.11.13-.79,1-.44.55-.1.13-.21.25-.31.37a10.42,10.42,0,0,1-.89.87c-.31.26.47-.29-.08.05-.18.11-.34.23-.52.33s-.23.11-.34.18c-.43.23.4-.09-.2.07-.21.05-1.21.23-.5.16a6.56,6.56,0,0,1-1,0l-.45,0c.66,0,.11,0,0,0-.33-.08-.64-.23-1-.29s.51.27,0,0c-.16-.09-.33-.16-.5-.26s-.57-.39-.87-.56.42.39,0,0c-.15-.13-.3-.25-.44-.39s-.5-.52-.74-.79c-.09-.1-.34-.47,0,0-.11-.16-.23-.32-.34-.49a9.15,9.15,0,0,1-.55-1c-.08-.15-.15-.31-.22-.46.25.53,0-.08-.05-.17a9.78,9.78,0,0,1-.32-1.09c0-.16-.06-.34-.1-.51-.13-.64,0,.5,0-.16,0-.43,0-.85,0-1.28a2.5,2.5,0,1,0-5,0c-.27,6.74,5.88,14,13,12.28a9.53,9.53,0,0,0,4.53-2.74,24.44,24.44,0,0,0,3.09-4.11,21.57,21.57,0,0,0,2.89-9c.53-5.22-1-11-4.59-14.92a10.51,10.51,0,0,0-6.47-3.36,10.12,10.12,0,0,0-6.94,2,18.74,18.74,0,0,0-3.89,3.76,20.71,20.71,0,0,0-3.7,6.31,22.24,22.24,0,0,0,1.22,15.21,2.52,2.52,0,0,0,3.42.9,2.57,2.57,0,0,0,.9-3.42Z"/><path class="cls-1" d="M275.56,255.63a6,6,0,0,0,2,4.51,6.83,6.83,0,0,0,2.4,1.4,6.63,6.63,0,0,0,1.4.25,6.44,6.44,0,0,0,1.45-.1l-1.92-4.57a4.42,4.42,0,0,1-.76.44l.59-.25a2.39,2.39,0,0,1-.54.15l.66-.09a2.09,2.09,0,0,1-.5,0l.66.09a2.17,2.17,0,0,1-.42-.11l.6.25a2.1,2.1,0,0,1-.41-.24l.51.39a2.45,2.45,0,0,1-.45-.46l.39.51a3.35,3.35,0,0,1-.47-.82l.25.59a5.35,5.35,0,0,1-.35-1.32l.09.67a6,6,0,0,1,0-1.53l-.09.67a4.53,4.53,0,0,1,.3-1.15l-.25.6a3.29,3.29,0,0,1,.21-.42,2.6,2.6,0,0,0,.25-1.93,2.5,2.5,0,0,0-4.57-.59,7.64,7.64,0,0,0-.65,5.59,6.69,6.69,0,0,0,1.35,2.67,4.65,4.65,0,0,0,1.06.92,3.41,3.41,0,0,0,.61.29,2.66,2.66,0,0,0,.65.23,4.79,4.79,0,0,0,3.8-.84,2.6,2.6,0,0,0,1.15-1.49,2.53,2.53,0,0,0-.13-1.63,2.38,2.38,0,0,0-1-1.19l-.6-.25a2.5,2.5,0,0,0-1.33,0h-.07l.66-.09a3.75,3.75,0,0,1-.82,0l.66.09a3.77,3.77,0,0,1-.87-.25l.6.26a4.3,4.3,0,0,1-.85-.5l.51.39a4.38,4.38,0,0,1-.75-.74l.39.5a3.93,3.93,0,0,1-.49-.84l.25.59a3.54,3.54,0,0,1-.21-.79l.08.66a3,3,0,0,1,0-.52,2.54,2.54,0,0,0-.74-1.77,2.48,2.48,0,0,0-1.76-.73,2.53,2.53,0,0,0-2.5,2.5Z"/><path class="cls-1" d="M256.2,253.06c3.36,10.07,9.49,18.64,14.84,27.69a45.92,45.92,0,0,1,5.31,11.52,17.37,17.37,0,0,1,.71,5.61,16.4,16.4,0,0,1-1.2,5.74c-2.17,5.67-7.46,10.51-12.33,14.29a2.5,2.5,0,0,0,0,3.53,2.55,2.55,0,0,0,3.53,0c4.94-3.83,9.77-8.37,12.57-14.06a22.77,22.77,0,0,0,2.11-13.68c-1.42-9.45-7.79-17.65-12.63-25.59A81,81,0,0,1,261,251.73c-1-3-5.84-1.73-4.82,1.33Z"/><path class="cls-1" d="M255.77,254.87c4.07,9.71,8.8,19.12,13,28.77,1,2.3,2,4.61,2.9,6.95.42,1.08.84,2.17,1.24,3.27a10.36,10.36,0,0,1,.94,3.36c.05,3.48-1.82,6.56-3.87,9.28-2.58,3.4-5.64,6.46-7.78,10.19-1.6,2.8,2.72,5.32,4.32,2.53,3.82-6.69,11-11.6,12.15-19.66a14.63,14.63,0,0,0,.15-3,14,14,0,0,0-1.09-4c-.94-2.56-1.95-5.09-3-7.6-2.12-5-4.4-10-6.71-14.91-2.55-5.46-5.13-10.92-7.46-16.48a2.58,2.58,0,0,0-3.07-1.75,2.53,2.53,0,0,0-1.75,3.08Z"/><path class="cls-1" d="M200.49,248.23c.68.47,0-.15,0-.33a3.8,3.8,0,0,1-.17-2.25,6.61,6.61,0,0,1,1.21-3.13l-4.24,1.75c1.4-.05-.18-.06-.53-.33a6.52,6.52,0,0,1-1.21-1.38c.51.58.08-.36.12.5a17,17,0,0,1,0,1.75c-.07,1.27.17-.57-.1.78-.12.57-.24,1.14-.38,1.7a23.61,23.61,0,0,1-.91,2.77l11-1.43a2.19,2.19,0,0,1,0-2.42l-11-1.43a8.86,8.86,0,0,1,.47,1.11v.73c0-1,.6-1.74,2-2.2h3.19l.32.16,2.15,2.15-.33-.46.82,3-.07-.57c-.38-3.21-2.48-6-6-6-2.94,0-6.39,2.76-6,6,.34,2.82,1.25,5.1,3.89,6.53a7.6,7.6,0,0,0,8.44-.82c3.76-3,4.49-8.52,2.74-12.85s-8.26-6.37-11-1.43a14.75,14.75,0,0,0,0,14.53c2.71,5,9.17,3,11-1.44,2.95-7.3,3.16-20.73-7.67-21-6.19-.15-9,6.63-9.67,11.87-.72,5.74,1.16,11.08,6,14.45,2.65,1.86,6.67.48,8.21-2.15,1.75-3,.51-6.35-2.16-8.21Z"/><path class="cls-1" d="M288.63,251.51a19.75,19.75,0,0,1-.22-4.86,2.43,2.43,0,0,1,1-1.81l-4.24,1.76c1.66-.2.1,0-.72-.48a3.48,3.48,0,0,1-1.25-1.16c-.34-.88-.42-1-.23-.38-.52-1.4-.05-.14-.05.57,0,.32,0,.63-.07.95.09-.7.1-.82,0-.37s-.26,1.15-.42,1.71c-.09.31-.9,2.24-.23.83-.24.5-.6,1-.79,1.5-.38,1,.94-.89-.1,0l4.25-1.76.5.1,2.65,1.54.2.42.82,3-.06-.48-.82,3,.25-.43c3.91-6.68-6.46-12.73-10.36-6.06a7.23,7.23,0,0,0,4.13,10.52c3.63,1.12,6.72-.59,8.69-3.57A21,21,0,0,0,294.92,244c-.35-5.62-4.52-10.41-10.54-9.32-7.34,1.34-8.52,10.8-7.75,16.81.41,3.22,2.46,6,6,6,2.92,0,6.41-2.76,6-6Z"/><path class="cls-1" d="M31.27,208A27.12,27.12,0,0,0,30,194.78a45.33,45.33,0,0,0,.32,15.06C18,181,35.82,148.12,22.94,142.44a9.47,9.47,0,0,0,9-1.85,30,30,0,0,0-11.67,1.51c22-2.57,9.22-13.68,16.79-23.28l-6,4.71c-1.77-3.79,3.09-7,6.66-9.21C52,105.54,54.57,86.4,61.23,71,82.5,19.49,142.11,23.43,188.62,19.3L174.11,19l14.74-2-5.41-1.36c18.84,6.2,38.08,12.46,57.91,12.3-3.76,1.68-4.29,7.26-2,10.66,5,7.05,15.41,5.79,21.82,10.73C258.59,60.24,280.4,67.54,287.37,74L275.94,63.78c24.94,4.72,29.91,39.5,53,47.41-8.3,6.88-5.69,20-2.34,30.26a30.67,30.67,0,0,0,3-18.16c5.39,14.79-10.19,29.58-9.49,45.31,1.71,9.55,3.2,21.07-6.37,27.08,1.38-11.61-.62-24.94-8.2-34.15-2.24-1.75-5.37-1.63-8.21-1.52a122.21,122.21,0,0,1-45.29-6.9,15,15,0,0,1,10.23,5.16,45.19,45.19,0,0,1-23.36-11.44,19.09,19.09,0,0,1,9.07,7c-17.43-4.86-19.7-17.87-24.3-32.6-12.68-15-76.26-7.68-89.53,5.73-48.28,40.93-19.35,77.46-103.39,80.8"/><path class="cls-1" d="M37.27,208a34.1,34.1,0,0,0-1.54-14.77c-2.22-6.79-11-4.94-11.78,1.59a56,56,0,0,0,.54,16.65l11.57-3.19c-5.8-14.27-4.41-29.06-2.89-44,.92-9,2.63-22.07-7.2-27l-4.63,11A15.91,15.91,0,0,0,35,145.77c4.64-3.46,3.3-10.92-3-11.18a39.51,39.51,0,0,0-13.27,1.73c-6.13,1.88-5.39,12.71,1.6,11.78,7.63-1,16.66-2.95,19.17-11.4,1.49-5-.43-10.43,2.8-14.85,4.37-6-4.56-11.08-9.42-7.27l-6,4.71,10,2.65c.3,1-.34.35.72-.28.7-.41,1.42-1,2.08-1.47,1.34-.9,2.7-1.73,4-2.71a38.61,38.61,0,0,0,7.63-7.9c4.3-5.84,7-12.71,9.41-19.5,4.58-12.85,8.67-25.73,18.14-36,17-18.3,42.92-23.32,66.7-25.65,14.35-1.41,28.77-1.92,43.13-3.17,7.59-.66,7.84-11.85,0-12L174.11,13l1.6,11.79,14.74-2c6.06-.82,5.36-10.22,0-11.57L185,9.88c-7.53-1.9-10.5,9.16-3.19,11.57,19.33,6.35,39,12.47,59.5,12.51l-3-11.18c-7.65,4.45-8,14.89-2.34,21.13,6,6.57,15.32,5.81,22.2,10.63l-2.75-6.78c-3.12,17.11,17.79,21.77,27.7,30.48,5.77,5.07,14.27-3.32,8.49-8.49L280.19,59.53l-5.84,10c12.1,2.55,18.92,13.13,25.6,22.61,7.32,10.38,15,20.31,27.36,24.81l-2.65-10c-10.28,9.35-7.66,24.3-3.89,36.1,1.45,4.52,8.62,6.36,11,1.43a38.45,38.45,0,0,0,3.86-21.19l-11.78,1.6c3.7,11.46-5.88,23.08-8.55,33.87-1.54,6.2-.58,11.39-.06,17.58.45,5.26.27,10.89-4.49,14.16l9,5.18a58.86,58.86,0,0,0-1.95-23.39c-2-6.43-5.56-15.3-12.5-17.51-3.78-1.2-7.75-.71-11.64-.69a123.29,123.29,0,0,1-12.89-.58,119.59,119.59,0,0,1-27.12-6.18L252,159.11a9.83,9.83,0,0,1,6,3.4l5.84-10a41.45,41.45,0,0,1-20.72-9.9l-5.83,10a13.5,13.5,0,0,1,5.48,4.24l6.77-8.82c-11.7-3.51-15.31-12.59-18.59-23.43-1.48-4.86-2.84-8.21-7.15-11.07a34.34,34.34,0,0,0-10.5-4.31c-18.92-4.81-40.76-2.45-59.44,2.32-7.88,2-16.25,4.71-22.62,10a119.53,119.53,0,0,0-20.59,22c-8.79,12.09-13.48,26.72-22.49,38.58-12.91,17-37.62,18.84-57.43,19.69-7.69.33-7.74,12.34,0,12,20.4-.88,43.6-2.93,59.8-16.8,10.92-9.35,16-23.2,22.84-35.4,7.88-14,19.49-30.09,34.56-35.65,17.38-6.4,38.3-8.87,56.65-6.21,3.93.57,8.13,1.4,11.65,3.3.61.33,1.75,1.1,2,1.23.78.44.55,1.32.05-.14,1,3,1.8,6.07,2.8,9.07,4.37,13,11.77,22.4,25.3,26.45,4.64,1.39,10-4.51,6.78-8.81a28.5,28.5,0,0,0-12.65-9.75c-5.61-2.31-10.1,6.21-5.84,10a53,53,0,0,0,26,13c5.75,1,10.17-5.45,5.84-10-4-4.24-8.77-6.22-14.48-6.92-7.06-.86-7.6,9.71-1.59,11.79a129.38,129.38,0,0,0,44.12,7.18c3.23-.05,6-.94,8.05,1.63,1.89,2.31,3,5.71,3.82,8.53a50.56,50.56,0,0,1,1.3,19.44c-.46,4.43,5.48,7.62,9,5.19a23.38,23.38,0,0,0,10.46-18c.59-6.55-2-13.08-.71-19.52,2.81-14.22,13.78-26.41,8.87-41.61-2-6.07-12.59-5.47-11.79,1.59a27.11,27.11,0,0,1-2.22,15.13l11,1.44c-2.38-7.44-5.94-18.3.8-24.43,3.59-3.26,1.33-8.57-2.65-10-11.19-4.09-17.6-15.85-24.21-25C298.94,70.27,290.36,60.69,277.54,58c-5.47-1.15-10.61,5.77-5.84,10l11.43,10.22,8.49-8.49c-4.48-3.93-9.86-6.6-14.91-9.69-2.27-1.4-10.36-5.57-9.71-9.11a6.33,6.33,0,0,0-2.76-6.78c-4.08-2.85-8.85-3.91-13.52-5.37-1-.31-9.42-3.87-6.34-5.65,5.16-3,2.91-11.17-3-11.19-19.47,0-38-6.06-56.31-12.08l-3.19,11.57,5.41,1.36V11.24l-14.74,2c-6.87.93-4.93,11.66,1.59,11.78l14.51.28v-12c-27.42,2.39-55.85,1.86-82.29,10.48C93.59,27.93,81.49,34.35,72,43.91,61.11,54.8,55.42,68.5,50.5,82.81c-2.78,8.06-5.57,16.86-11.73,23-5.67,5.7-16.61,9.07-13.52,19.27,1.42,4.68,6.53,5.39,10,2.65l6-4.72-9.42-7.27c-3.15,4.31-3.54,9.25-3.67,14.4,0,1.45-.08,3.06-.38,3.41-1.51,1.72-5.3,2.2-7.56,2.5l1.59,11.79a29.14,29.14,0,0,1,10.08-1.3l-3-11.18c-1.46,1.09-2.52,1.69-4.37,1.25-6.34-1.52-11,7.82-4.62,11,1.06.53,1.09.51,1.52,1.75a16.52,16.52,0,0,1,.44,5.61c-.1,5.3-.87,10.57-1.37,15.84-1.32,13.7-1.27,27.67,4,40.61,2.9,7.13,12.88,4.52,11.57-3.19A45.65,45.65,0,0,1,36,194.78l-11.79,1.6A25.56,25.56,0,0,1,25.27,208c-.9,7.66,11.1,7.59,12,0Z"/><path class="cls-1" d="M55.34,209.46C79.75,210.84,75.7,246.56,96,255c4,3.73,4.7-26.88,7-30.3,3-16.4,13-24.45,24.46-34.8,12.4-16.12-10-45.66,13.37-55.36,14.93-6.54,31.94-12.52,48.38-9.8,16.39,5.36,28.44,21,46.23,23.54,12.59,4.2,10.34-27.35,9.92-34.63-2.41-30.16-32.16-41.4-59.2-41.9-35-4.93-70.47,1-95.36,27.53C55.08,125.6,42.54,167.81,55.77,210.11"/><path class="cls-1" d="M55.34,215.46c8.56.68,12.57,8.3,15.83,15.29,3.88,8.3,7,17.36,13.73,23.9,5.54,5.4,15.39,10.67,19,.23,2.52-7.35,2.39-15.68,3.54-23.32.19-1.3.42-2.58.73-3.86s-.41,1.57.24-.71c.51-1.78.89-3.61,1.42-5.39a40.09,40.09,0,0,1,9.62-16c4.28-4.58,10.3-8.35,13.74-13.57a28.22,28.22,0,0,0,4.15-13.83c.65-9.64-3.1-19.43-1.63-29,.66-4.35,3-7,6.89-9a113.83,113.83,0,0,1,22.51-8.08c7.2-1.81,16.54-3.62,23.79-1.17,5.83,2,11.12,5.87,16.17,9.29,9.37,6.35,21.06,14.78,33,14.34,16.67-.6,14.11-30.11,13.22-41-2-24.54-21.06-40-43.91-45.31a102,102,0,0,0-17.48-2.45c-6.77-.38-13.48-1.37-20.27-1.62a126.31,126.31,0,0,0-40.25,4.67A97.77,97.77,0,0,0,94,87.88C88.58,92.44,83.19,97.23,78,102a107.84,107.84,0,0,0-13.67,15.21c-15.74,21-22.05,47.91-18.74,73.84A124.55,124.55,0,0,0,50,211.71c2.25,7.36,13.83,4.22,11.57-3.19-7.28-23.85-6.78-49.78,4.87-72.2A94.5,94.5,0,0,1,90,107.42C100.1,99,109.07,90.2,121.28,84.63c23.26-10.59,49-9.07,73.72-6.34,19.28,2.13,40.55,11.6,44,32.81a93,93,0,0,1,.45,21.68,26.52,26.52,0,0,1-1.89,9.07c.05-.11-1.14,1.79-.6,1,.25-.39-.5-.09.12-.08.47,0,1.18,0-.11-.26-1.92-.43-3.83-.71-5.73-1.29C219.63,137.61,210.58,128.6,200,123a38.69,38.69,0,0,0-18-4.91,78,78,0,0,0-22.77,3.21,159.16,159.16,0,0,0-20,7.37c-4.95,2.14-9.37,4.92-12.27,9.61-4.73,7.63-3.68,17-2.65,25.48a87.46,87.46,0,0,1,1,13.42c-.19,5.19-1.85,8.12-5.63,11.54-8.92,8.07-17.14,16.6-21,28.26C96,225,95.22,233.51,94.13,242c-.24,1.9-.5,3.79-.85,5.66-.14.75-.31,1.48-.46,2.22s-.12,2.28-.28,1.27c.24,1.46,10.62,1.8,6.45-1.37-1-.76-2.42-1.11-3.48-1.85a19.76,19.76,0,0,1-4.38-4.28c-5.62-7.38-7.92-16.8-12.56-24.77-5.2-9-12.76-14.61-23.23-15.44-7.7-.61-7.66,11.39,0,12Z"/><path class="cls-1" d="M107.65,243.26q10-1,19.95-1.31v-5l-21.54,2.54a2.52,2.52,0,0,0-2.45,2.17,2.49,2.49,0,0,0,1.79,2.74A79.42,79.42,0,0,0,128.27,247c3.21-.11,3.22-5.11,0-5a74.83,74.83,0,0,1-21.54-2.41l-.67,4.91L127.6,242a2.57,2.57,0,0,0,2.5-2.5,2.53,2.53,0,0,0-2.5-2.5q-10,.3-19.95,1.31a2.57,2.57,0,0,0-2.5,2.5,2.52,2.52,0,0,0,2.5,2.5Z"/><path class="cls-1" d="M272.76,251.16a14.37,14.37,0,0,0,8.76,11.77c.41.17.83.32,1.25.47-.23-.08-.18-.09,0,0a8.33,8.33,0,0,0,1.18.43c3.55.78,5.7-2.65,6.85-5.43A37.82,37.82,0,0,0,293.16,248a28.06,28.06,0,0,0-.32-9.8,5.59,5.59,0,0,0-2.44-3.62c-1.78-1-3.7-.15-5.06,1.11-2.37,2.19,1.17,5.72,3.53,3.54.58-.54-.33.19.12-.11s0,0,0,0c.5-.15-.72,0-.23,0s-.75-.13-.4,0-.7-.36-.29-.11c0,0-.52-.5-.12,0-.57-.65-.26-.3-.11-.07.37.59-.1-.5,0,0,.06.25.15.49.22.73s.1.47.14.7,0,.28.07.42c.11.52,0-.63,0-.09s.11,1.28.13,1.93a38.39,38.39,0,0,1-.13,4.42c-.06.71-.14,1.43-.23,2.14.08-.66-.08.52-.11.71-.07.39-.13.77-.21,1.16a33.83,33.83,0,0,1-1.08,4.33c-.09.27-.18.54-.28.81s-.5,1.17-.16.45a17.17,17.17,0,0,1-.79,1.54c-.14.22-.29.42-.43.63.47-.7.05-.12-.1.06s-.15.11-.19.18c-.22.34.51-.38.19-.15-.62.44.33,0-.07.07s.7,0,.06,0c-.41,0,.71.14.31.05s-.53-.28.14.1c-1.09-.62-2.27-.84-3.34-1.52a9.41,9.41,0,0,1-4.2-6.39,2.57,2.57,0,0,0-2.5-2.5,2.51,2.51,0,0,0-2.5,2.5Z"/><path class="cls-1" d="M275.34,256.75a5.44,5.44,0,0,0,.34,1.24,7.8,7.8,0,0,0,.85,1.68,8,8,0,0,0,2.73,2.53,2.65,2.65,0,0,0,1.93.25,2.53,2.53,0,0,0,1.49-1.15,2.5,2.5,0,0,0,.25-1.93,2.54,2.54,0,0,0-1.14-1.49,6,6,0,0,1-.75-.48l.51.39a5.45,5.45,0,0,1-1-1l.4.51a5.76,5.76,0,0,1-.72-1.22l.25.6a5.83,5.83,0,0,1-.36-1.3,1.78,1.78,0,0,0-.44-.85,1.9,1.9,0,0,0-.7-.65,2.6,2.6,0,0,0-1.93-.25,2.5,2.5,0,0,0-1.49,1.15l-.26.6a2.5,2.5,0,0,0,0,1.33Z"/><path class="cls-1" d="M273.82,254.85a9.07,9.07,0,0,0,4.08,7.24,8.81,8.81,0,0,0,7.79,1.08,2.7,2.7,0,0,0,1.5-1.15,2.57,2.57,0,0,0,.25-1.92,2.53,2.53,0,0,0-3.08-1.75,6,6,0,0,1-1.33.33l.66-.09a6.78,6.78,0,0,1-1.56,0l.67.09a6.58,6.58,0,0,1-1-.21c-.16,0-.31-.1-.47-.15-.43-.15.22.11.24.1s-.18-.07-.21-.09a6.59,6.59,0,0,1-.86-.49c-.08,0-.15-.12-.23-.16s.52.43.2.15l-.38-.32-.35-.36c-.08-.09-.45-.55-.16-.17s-.06-.1-.13-.2-.17-.28-.25-.43-.25-.39-.22-.45.23.62.12.29l-.09-.26a6.18,6.18,0,0,1-.25-1.05l.09.67c0-.23,0-.46-.05-.7a2.5,2.5,0,1,0-5,0Z"/><path class="cls-1" d="M197.34,258.6l-.26,0,.66.09a12.17,12.17,0,0,1-3.07-.9l.6.26a12.57,12.57,0,0,1-2.6-1.48l.5.39a7.11,7.11,0,0,1-1.21-1.18l.39.51a4.77,4.77,0,0,1-.52-.87l.26.6a2.74,2.74,0,0,1-.2-.73l.09.66a2.58,2.58,0,0,1,0-.68l-.09.66a3.58,3.58,0,0,1,.2-.71l-.25.6a4.54,4.54,0,0,1,.47-.8l-.39.5a3.47,3.47,0,0,1,.25-.29,2.66,2.66,0,0,0,.73-1.77,2.5,2.5,0,0,0-4.27-1.77,6,6,0,0,0-1.68,3.92,5.67,5.67,0,0,0,1.28,3.46,12.67,12.67,0,0,0,5.76,3.81,13.67,13.67,0,0,0,3.35.75,2.5,2.5,0,0,0,1.76-.73,2.54,2.54,0,0,0,.74-1.77,2.58,2.58,0,0,0-.74-1.77,2.84,2.84,0,0,0-1.76-.73Z"/><path class="cls-1" d="M315.66,211.46c-.71,8.34,3.87,15.58,6.79,23,3.24,8.29,3.38,17.11,3.42,25.89,0,3.21,5,3.22,5,0,0-8.88-.16-18-3.3-26.43-2.71-7.27-7.59-14.43-6.91-22.5a2.51,2.51,0,0,0-2.5-2.5,2.56,2.56,0,0,0-2.5,2.5Z"/><path class="cls-1" d="M307.5,210.57a27.19,27.19,0,0,1,.77,3.08c.07.45.05.33-.06-.38,0,.25,0,.49.05.73,0,.58,0,1.14,0,1.72a6.05,6.05,0,0,0,6,6,6.12,6.12,0,0,0,6-6,25.09,25.09,0,0,0-1.21-8.34c-1-3-4.19-5.22-7.38-4.19-3,1-5.25,4.19-4.19,7.38Z"/><path class="cls-1" d="M308.93,292.08c-.05,1.77-.17,3.54-.37,5.3,0,.21-.05.41-.08.62s0,.21,0,.31c.05-.32.05-.34,0-.05s-.12.83-.19,1.24c-.14.89-.31,1.78-.49,2.66a2.5,2.5,0,1,0,4.82,1.33,66.3,66.3,0,0,0,1.34-11.41,2.5,2.5,0,0,0-5,0Z"/><path class="cls-1" d="M165,402.12l14.83,13.61a2.5,2.5,0,1,0,3.53-3.54l-14.83-13.61a2.5,2.5,0,0,0-3.53,3.54Z"/><path class="cls-1" d="M174.52,401.21c9,5.34,18.68,10.15,29,12.4a72.64,72.64,0,0,0,28.07.11A165.41,165.41,0,0,0,250,409.24c3.07-.91,1.76-5.74-1.33-4.83-9.62,2.85-19.51,5.39-29.59,5.66a64,64,0,0,1-25.76-4.91,120.22,120.22,0,0,1-16.23-8.27c-2.78-1.64-5.3,2.68-2.53,4.32Z"/></g></g></svg>